<mxfile host="app.diagrams.net" modified="2020-09-28T14:04:12.177Z" agent="5.0 (Windows NT 10.0; Win64; x64) AppleWebKit/537.36 (KHTML, like Gecko) Chrome/85.0.4183.121 Safari/537.36" etag="ZwqSUVx3VV6eAghlxwcg" version="13.7.5" type="github">
  <diagram id="LD_omqqaBV3Gu8l8wRe7" name="Page-1">
    <mxGraphModel dx="868" dy="482" grid="1" gridSize="10" guides="1" tooltips="1" connect="1" arrows="1" fold="1" page="1" pageScale="1" pageWidth="850" pageHeight="1100" math="0" shadow="0">
      <root>
        <mxCell id="0" />
        <mxCell id="1" parent="0" />
        <mxCell id="Ja5abFj9FIscOif6Dd4T-1" value="Customer/Pet Owner" style="rounded=0;whiteSpace=wrap;html=1;" vertex="1" parent="1">
          <mxGeometry x="170" y="160" width="110" height="40" as="geometry" />
        </mxCell>
        <mxCell id="Ja5abFj9FIscOif6Dd4T-2" value="Appointment" style="rounded=0;whiteSpace=wrap;html=1;" vertex="1" parent="1">
          <mxGeometry x="350" y="160" width="110" height="40" as="geometry" />
        </mxCell>
        <mxCell id="Ja5abFj9FIscOif6Dd4T-3" value="VET" style="rounded=0;whiteSpace=wrap;html=1;" vertex="1" parent="1">
          <mxGeometry x="530" y="160" width="120" height="40" as="geometry" />
        </mxCell>
        <mxCell id="Ja5abFj9FIscOif6Dd4T-4" value="Actor" style="shape=umlActor;verticalLabelPosition=bottom;verticalAlign=top;html=1;outlineConnect=0;" vertex="1" parent="1">
          <mxGeometry x="210" y="80" width="30" height="60" as="geometry" />
        </mxCell>
        <mxCell id="Ja5abFj9FIscOif6Dd4T-12" style="edgeStyle=orthogonalEdgeStyle;rounded=0;orthogonalLoop=1;jettySize=auto;html=1;" edge="1" parent="1" source="Ja5abFj9FIscOif6Dd4T-6">
          <mxGeometry relative="1" as="geometry">
            <mxPoint x="220" y="230" as="targetPoint" />
          </mxGeometry>
        </mxCell>
        <mxCell id="Ja5abFj9FIscOif6Dd4T-6" value="Annual Vaccination" style="text;html=1;strokeColor=none;fillColor=none;align=center;verticalAlign=middle;whiteSpace=wrap;rounded=0;" vertex="1" parent="1">
          <mxGeometry x="110" y="220" width="40" height="20" as="geometry" />
        </mxCell>
        <mxCell id="Ja5abFj9FIscOif6Dd4T-13" value="" style="rounded=0;whiteSpace=wrap;html=1;labelBackgroundColor=#ffffff;fontColor=#E6E6E6;" vertex="1" parent="1">
          <mxGeometry x="220" y="210" width="10" height="60" as="geometry" />
        </mxCell>
        <mxCell id="Ja5abFj9FIscOif6Dd4T-18" value="" style="endArrow=classic;html=1;fontColor=#E6E6E6;" edge="1" parent="1">
          <mxGeometry relative="1" as="geometry">
            <mxPoint x="340" y="229.5" as="sourcePoint" />
            <mxPoint x="500" y="229.5" as="targetPoint" />
            <Array as="points">
              <mxPoint x="230" y="229.5" />
            </Array>
          </mxGeometry>
        </mxCell>
        <mxCell id="Ja5abFj9FIscOif6Dd4T-19" value="Time/Date" style="edgeLabel;resizable=0;html=1;align=center;verticalAlign=middle;" connectable="0" vertex="1" parent="Ja5abFj9FIscOif6Dd4T-18">
          <mxGeometry relative="1" as="geometry" />
        </mxCell>
        <mxCell id="Ja5abFj9FIscOif6Dd4T-20" value="Make appt" style="edgeLabel;resizable=0;html=1;align=left;verticalAlign=bottom;" connectable="0" vertex="1" parent="Ja5abFj9FIscOif6Dd4T-18">
          <mxGeometry x="-1" relative="1" as="geometry" />
        </mxCell>
        <mxCell id="Ja5abFj9FIscOif6Dd4T-23" value="" style="endArrow=none;dashed=1;html=1;fontColor=#E6E6E6;exitX=0.5;exitY=1;exitDx=0;exitDy=0;" edge="1" parent="1" source="Ja5abFj9FIscOif6Dd4T-2">
          <mxGeometry width="50" height="50" relative="1" as="geometry">
            <mxPoint x="400" y="250" as="sourcePoint" />
            <mxPoint x="405" y="400" as="targetPoint" />
          </mxGeometry>
        </mxCell>
        <mxCell id="Ja5abFj9FIscOif6Dd4T-24" value="" style="endArrow=none;dashed=1;html=1;fontColor=#E6E6E6;" edge="1" parent="1">
          <mxGeometry width="50" height="50" relative="1" as="geometry">
            <mxPoint x="230" y="410" as="sourcePoint" />
            <mxPoint x="230" y="200" as="targetPoint" />
          </mxGeometry>
        </mxCell>
      </root>
    </mxGraphModel>
  </diagram>
</mxfile>
